%TF.GenerationSoftware,KiCad,Pcbnew,8.0.1*%
%TF.CreationDate,2025-07-10T21:51:53+09:00*%
%TF.ProjectId,OrionV2V3_rp2040,4f72696f-6e56-4325-9633-5f7270323034,rev?*%
%TF.SameCoordinates,Original*%
%TF.FileFunction,Legend,Top*%
%TF.FilePolarity,Positive*%
%FSLAX46Y46*%
G04 Gerber Fmt 4.6, Leading zero omitted, Abs format (unit mm)*
G04 Created by KiCad (PCBNEW 8.0.1) date 2025-07-10 21:51:53*
%MOMM*%
%LPD*%
G01*
G04 APERTURE LIST*
%ADD10C,0.150000*%
%ADD11C,0.120000*%
G04 APERTURE END LIST*
D10*
G36*
X259838626Y-46252515D02*
G01*
X259886749Y-46240102D01*
X259924769Y-46203160D01*
X259939124Y-46155636D01*
X259939254Y-46150422D01*
X259939254Y-45482418D01*
X259952474Y-45431099D01*
X259987482Y-45396847D01*
X260037303Y-45381986D01*
X260048431Y-45381545D01*
X260101280Y-45395412D01*
X260142484Y-45427574D01*
X260171002Y-45473636D01*
X260180077Y-45521741D01*
X260196229Y-45570220D01*
X260237216Y-45599176D01*
X260261410Y-45602829D01*
X260309360Y-45586694D01*
X260337516Y-45545821D01*
X260341034Y-45521741D01*
X260334873Y-45460923D01*
X260317212Y-45404222D01*
X260289282Y-45352867D01*
X260252312Y-45308089D01*
X260207535Y-45271120D01*
X260156180Y-45243189D01*
X260099478Y-45225528D01*
X260038661Y-45219368D01*
X259977843Y-45225528D01*
X259921142Y-45243189D01*
X259869787Y-45271120D01*
X259825009Y-45308089D01*
X259788040Y-45352867D01*
X259760110Y-45404222D01*
X259742449Y-45460923D01*
X259736288Y-45521741D01*
X259736288Y-46150422D01*
X259748709Y-46199534D01*
X259785713Y-46237970D01*
X259833390Y-46252385D01*
X259838626Y-46252515D01*
G37*
G36*
X259496197Y-45932313D02*
G01*
X259446104Y-45923956D01*
X259398271Y-45945853D01*
X259371634Y-45977009D01*
X259343823Y-46017861D01*
X259306958Y-46051979D01*
X259260451Y-46071715D01*
X259223134Y-46075683D01*
X259171388Y-46071061D01*
X259121618Y-46052119D01*
X259087499Y-46012314D01*
X259080252Y-45971392D01*
X259091510Y-45923833D01*
X259123797Y-45880326D01*
X259164414Y-45852517D01*
X259205060Y-45838035D01*
X259250196Y-45815658D01*
X259273442Y-45770013D01*
X259273692Y-45764274D01*
X259254050Y-45718957D01*
X259208136Y-45695309D01*
X259205060Y-45694665D01*
X259156211Y-45675774D01*
X259115092Y-45646977D01*
X259080735Y-45606608D01*
X259062683Y-45555536D01*
X259066982Y-45505427D01*
X259070482Y-45494630D01*
X259096421Y-45451910D01*
X259140596Y-45419571D01*
X259187022Y-45403444D01*
X259236092Y-45396568D01*
X259256840Y-45395956D01*
X259306833Y-45407417D01*
X259352656Y-45433127D01*
X259392316Y-45468294D01*
X259416330Y-45502934D01*
X259443107Y-45544279D01*
X259486569Y-45567883D01*
X259524285Y-45566926D01*
X259564979Y-45535977D01*
X259576767Y-45483807D01*
X259567516Y-45437721D01*
X259545112Y-45393718D01*
X259513668Y-45354285D01*
X259474909Y-45319805D01*
X259430557Y-45290656D01*
X259382335Y-45267221D01*
X259331967Y-45249879D01*
X259281175Y-45239012D01*
X259231682Y-45235000D01*
X259174365Y-45239671D01*
X259115644Y-45254421D01*
X259058309Y-45278701D01*
X259005147Y-45311967D01*
X258958946Y-45353670D01*
X258922494Y-45403264D01*
X258898578Y-45460202D01*
X258889987Y-45523939D01*
X258894402Y-45582279D01*
X258911900Y-45641777D01*
X258938853Y-45683879D01*
X258979502Y-45717868D01*
X259027753Y-45741176D01*
X259069793Y-45767276D01*
X259070482Y-45771113D01*
X259028407Y-45798423D01*
X258985361Y-45823225D01*
X258950269Y-45858749D01*
X258923568Y-45914069D01*
X258913086Y-45976542D01*
X258912457Y-45995083D01*
X258917961Y-46044426D01*
X258940684Y-46100152D01*
X258970174Y-46139121D01*
X259008507Y-46172349D01*
X259054562Y-46199141D01*
X259107221Y-46218801D01*
X259165365Y-46230634D01*
X259211899Y-46233953D01*
X259260735Y-46231715D01*
X259319381Y-46220924D01*
X259373801Y-46202322D01*
X259422326Y-46177054D01*
X259463282Y-46146266D01*
X259500086Y-46103647D01*
X259508898Y-46088384D01*
X259529227Y-46039444D01*
X259536447Y-45990293D01*
X259515967Y-45945190D01*
X259496197Y-45932313D01*
G37*
D11*
%TO.C,J3*%
X254898250Y-40250000D02*
X254898250Y-41950000D01*
X264238250Y-40250000D02*
X264238250Y-41950000D01*
%TD*%
M02*
