M48
; DRILL file {KiCad 8.0.1} date 2025-07-10T21:51:55+0900
; FORMAT={-:-/ absolute / metric / decimal}
; #@! TF.CreationDate,2025-07-10T21:51:55+09:00
; #@! TF.GenerationSoftware,Kicad,Pcbnew,8.0.1
; #@! TF.FileFunction,NonPlated,1,2,NPTH
FMAT,2
METRIC
; #@! TA.AperFunction,NonPlated,NPTH,ComponentDrill
T1C0.650
; #@! TA.AperFunction,NonPlated,NPTH,ComponentDrill
T2C1.750
; #@! TA.AperFunction,NonPlated,NPTH,ComponentDrill
T3C3.048
; #@! TA.AperFunction,NonPlated,NPTH,ComponentDrill
T4C3.988
; #@! TA.AperFunction,NonPlated,NPTH,ComponentDrill
T5C4.000
%
G90
G05
T1
X256.678Y-42.755
X256.678Y-42.755
X262.458Y-42.755
X262.458Y-42.755
T2
X-24.13Y-52.387
X-24.13Y-76.2
X-21.749Y-114.3
X-21.749Y-152.4
X-19.367Y-95.25
X-19.367Y-152.4
X-16.986Y-114.3
X-13.97Y-52.387
X-13.97Y-76.2
X-12.224Y-133.35
X-11.589Y-114.3
X-11.589Y-152.4
X-9.207Y-95.25
X-9.207Y-152.4
X-6.826Y-114.3
X-5.08Y-76.2
X-2.064Y-133.35
X2.064Y-152.4
X4.445Y-95.25
X4.445Y-152.4
X5.08Y-76.2
X9.207Y-114.3
X12.224Y-152.4
X13.97Y-52.387
X13.97Y-76.2
X14.605Y-95.25
X14.605Y-152.4
X18.732Y-133.35
X19.367Y-114.3
X23.495Y-95.25
X24.13Y-52.387
X24.13Y-76.2
X25.876Y-152.4
X28.258Y-114.3
X28.258Y-152.4
X28.892Y-133.35
X33.02Y-52.387
X33.02Y-76.2
X33.655Y-95.25
X36.036Y-152.4
X37.782Y-133.35
X38.417Y-114.3
X38.417Y-152.4
X42.545Y-95.25
X43.18Y-52.387
X43.18Y-76.2
X47.307Y-114.3
X47.942Y-133.35
X52.07Y-52.387
X52.07Y-76.2
X52.705Y-95.25
X56.832Y-133.35
X57.467Y-114.3
X61.595Y-95.25
X62.23Y-52.387
X62.23Y-76.2
X66.358Y-114.3
X66.992Y-133.35
X71.12Y-52.387
X71.12Y-76.2
X71.755Y-95.25
X75.882Y-133.35
X76.517Y-114.3
X80.645Y-95.25
X81.28Y-52.387
X81.28Y-76.2
X85.407Y-114.3
X86.042Y-133.35
X90.17Y-76.2
X90.805Y-95.25
X94.932Y-133.35
X95.567Y-114.3
X97.314Y-152.4
X99.695Y-52.387
X99.695Y-95.25
X100.33Y-76.2
X104.457Y-114.3
X105.093Y-133.35
X107.474Y-152.4
X109.22Y-76.2
X109.22Y-152.4
X109.855Y-52.387
X109.855Y-95.25
X113.983Y-133.35
X114.617Y-114.3
X118.745Y-52.387
X118.745Y-95.25
X119.38Y-76.2
X119.38Y-152.4
X123.507Y-114.3
X124.142Y-133.35
X128.27Y-76.2
X128.905Y-52.387
X128.905Y-95.25
X133.032Y-133.35
X133.667Y-114.3
X137.795Y-52.387
X137.795Y-95.25
X138.43Y-76.2
X142.558Y-114.3
X143.192Y-133.35
X147.32Y-76.2
X147.955Y-52.387
X147.955Y-95.25
X152.082Y-133.35
X152.718Y-114.3
X156.845Y-52.387
X156.845Y-95.25
X157.48Y-76.2
X161.607Y-114.3
X162.243Y-133.35
X166.37Y-76.2
X167.005Y-52.387
X167.005Y-95.25
X168.751Y-152.4
X171.132Y-133.35
X171.767Y-114.3
X175.895Y-95.25
X176.53Y-76.2
X178.911Y-152.4
X180.657Y-114.3
X181.292Y-133.35
X185.42Y-52.387
X185.42Y-76.2
X186.055Y-95.25
X190.183Y-133.35
X190.183Y-152.4
X190.817Y-114.3
X192.564Y-152.4
X194.945Y-95.25
X195.58Y-52.387
X195.58Y-76.2
X199.707Y-114.3
X200.343Y-133.35
X200.343Y-152.4
X202.724Y-152.4
X204.47Y-52.387
X204.47Y-76.2
X205.105Y-95.25
X209.867Y-114.3
X213.995Y-95.25
X213.995Y-152.4
X214.63Y-52.387
X214.63Y-76.2
X216.376Y-133.35
X216.376Y-152.4
X223.52Y-52.387
X223.52Y-76.2
X224.155Y-95.25
X224.155Y-152.4
X225.901Y-133.35
X226.536Y-133.35
X226.536Y-152.4
X230.664Y-114.3
X233.045Y-76.2
X233.68Y-52.387
X233.68Y-76.2
X236.061Y-133.35
X237.807Y-95.25
X237.807Y-152.4
X240.189Y-152.4
X240.824Y-114.3
X242.57Y-52.387
X242.57Y-76.2
X242.57Y-133.35
X243.205Y-76.2
X247.968Y-95.25
X247.968Y-152.4
X250.349Y-152.4
X252.73Y-52.387
X252.73Y-76.2
X252.73Y-133.35
X266.382Y-52.387
X266.382Y-76.2
X266.382Y-95.25
X266.382Y-152.4
X276.542Y-52.387
X276.542Y-76.2
X276.542Y-95.25
X276.542Y-152.4
X285.433Y-52.387
X285.433Y-76.2
X285.433Y-95.25
X285.433Y-133.35
X285.433Y-152.4
X295.592Y-52.387
X295.592Y-76.2
X295.592Y-95.25
X295.592Y-133.35
X295.592Y-152.4
X304.482Y-52.387
X304.482Y-76.2
X304.482Y-95.25
X304.482Y-152.4
X314.642Y-52.387
X314.642Y-76.2
X314.642Y-95.25
X314.642Y-152.4
T3
X-19.082Y-126.365
X4.794Y-126.365
X52.394Y-159.385
X57.15Y-159.385
X152.394Y-159.385
X171.45Y-159.385
X219.043Y-126.365
X223.806Y-121.285
X226.187Y-69.215
X242.919Y-126.365
X247.682Y-121.285
X250.063Y-69.215
T4
X-19.082Y-141.575
X4.794Y-141.575
X52.394Y-144.175
X57.15Y-144.175
X152.394Y-144.175
X171.45Y-144.175
X219.043Y-141.575
X223.806Y-106.075
X226.187Y-84.425
X242.919Y-141.575
X247.682Y-106.075
X250.063Y-84.425
T5
X-19.05Y-52.387
X-19.05Y-76.2
X-16.669Y-114.3
X-16.669Y-152.4
X-14.287Y-95.25
X-14.287Y-152.4
X-11.906Y-114.3
X-7.144Y-133.35
X0.0Y-76.2
X7.144Y-152.4
X9.525Y-95.25
X9.525Y-152.4
X14.287Y-114.3
X19.05Y-52.387
X19.05Y-76.2
X23.812Y-133.35
X28.575Y-95.25
X30.956Y-152.4
X33.337Y-114.3
X33.337Y-152.4
X38.1Y-52.387
X38.1Y-76.2
X42.862Y-133.35
X47.625Y-95.25
X52.387Y-114.3
X57.15Y-52.387
X57.15Y-76.2
X61.912Y-133.35
X66.675Y-95.25
X71.438Y-114.3
X76.2Y-52.387
X76.2Y-76.2
X80.962Y-133.35
X85.725Y-95.25
X90.487Y-114.3
X95.25Y-76.2
X100.012Y-133.35
X102.394Y-152.4
X104.775Y-52.387
X104.775Y-95.25
X109.537Y-114.3
X114.3Y-76.2
X114.3Y-152.4
X119.062Y-133.35
X123.825Y-52.387
X123.825Y-95.25
X128.588Y-114.3
X133.35Y-76.2
X138.112Y-133.35
X142.875Y-52.387
X142.875Y-95.25
X147.637Y-114.3
X152.4Y-76.2
X157.162Y-133.35
X161.925Y-52.387
X161.925Y-95.25
X166.688Y-114.3
X171.45Y-76.2
X173.831Y-152.4
X176.213Y-133.35
X180.975Y-95.25
X185.737Y-114.3
X190.5Y-52.387
X190.5Y-76.2
X195.262Y-133.35
X195.262Y-152.4
X197.644Y-152.4
X200.025Y-95.25
X204.787Y-114.3
X209.55Y-52.387
X209.55Y-76.2
X219.075Y-95.25
X219.075Y-152.4
X221.456Y-133.35
X221.456Y-152.4
X228.6Y-52.387
X228.6Y-76.2
X230.981Y-133.35
X235.744Y-114.3
X238.125Y-76.2
X242.887Y-95.25
X242.887Y-152.4
X245.269Y-152.4
X247.65Y-52.387
X247.65Y-76.2
X247.65Y-133.35
X271.462Y-52.387
X271.462Y-76.2
X271.462Y-95.25
X271.462Y-152.4
X290.512Y-52.387
X290.512Y-76.2
X290.512Y-95.25
X290.512Y-133.35
X290.512Y-152.4
X309.562Y-52.387
X309.562Y-76.2
X309.562Y-95.25
X309.562Y-152.4
M30
