M48
; DRILL file {KiCad 8.0.1} date 2025-07-10T21:51:55+0900
; FORMAT={-:-/ absolute / metric / decimal}
; #@! TF.CreationDate,2025-07-10T21:51:55+09:00
; #@! TF.GenerationSoftware,Kicad,Pcbnew,8.0.1
; #@! TF.FileFunction,Plated,1,2,PTH
FMAT,2
METRIC
; #@! TA.AperFunction,Plated,PTH,ViaDrill
T1C0.300
; #@! TA.AperFunction,Plated,PTH,ComponentDrill
T2C0.350
; #@! TA.AperFunction,Plated,PTH,ComponentDrill
T3C0.600
; #@! TA.AperFunction,Plated,PTH,ComponentDrill
T4C1.500
%
G90
G05
T1
X-25.225Y-118.375
X-25.16Y-140.57
X-25.15Y-64.4
X-25.15Y-102.475
X-25.125Y-121.55
X-23.812Y-152.4
X-23.33Y-127.81
X-23.33Y-146.85
X-23.325Y-89.7
X-23.325Y-108.75
X-23.275Y-112.45
X-23.2Y-94.65
X-23.05Y-99.4
X-21.6Y-86.915
X-20.825Y-121.25
X-19.625Y-116.45
X-19.05Y-133.35
X-18.95Y-98.125
X-18.7Y-103.375
X-18.45Y-121.575
X-16.837Y-118.55
X-16.669Y-83.344
X-16.5Y-125.5
X-14.865Y-123.915
X-14.625Y-121.9
X-14.5Y-50.425
X-14.0Y-69.0
X-13.67Y-121.9
X-12.0Y-69.0
X-12.0Y-73.0
X-11.45Y-57.425
X-10.012Y-78.562
X-9.775Y-60.3
X-9.469Y-87.602
X-8.87Y-75.59
X-7.775Y-50.5
X-5.375Y-45.875
X-5.25Y-51.65
X-5.25Y-57.375
X-4.895Y-65.215
X-4.732Y-101.715
X-4.295Y-57.4
X-4.275Y-59.925
X-2.381Y-95.25
X-2.381Y-114.3
X-2.381Y-152.4
X0.0Y-140.494
X0.544Y-87.539
X2.381Y-83.344
X2.381Y-133.35
X2.525Y-47.375
X2.575Y-58.9
X2.6Y-53.15
X4.763Y-114.3
X4.796Y-123.925
X5.775Y-58.975
X7.3Y-54.05
X8.15Y-46.35
X9.525Y-76.2
X9.525Y-140.494
X11.25Y-50.5
X13.556Y-57.252
X14.287Y-133.35
X19.05Y-95.25
X19.05Y-140.494
X20.007Y-87.952
X21.431Y-83.344
X21.431Y-152.4
X23.812Y-114.3
X28.575Y-76.2
X28.575Y-140.494
X33.337Y-133.35
X34.793Y-137.34
X34.793Y-139.315
X38.1Y-95.25
X39.519Y-88.414
X40.481Y-83.344
X40.481Y-140.494
X42.625Y-50.825
X42.862Y-114.3
X45.244Y-152.4
X45.244Y-159.544
X47.625Y-76.2
X49.375Y-50.5
X50.006Y-54.769
X52.387Y-133.35
X52.387Y-140.494
X53.495Y-61.465
X54.769Y-152.4
X57.15Y-95.25
X59.531Y-83.344
X61.912Y-114.3
X64.294Y-140.494
X64.294Y-152.4
X64.294Y-159.544
X66.675Y-52.387
X66.675Y-76.2
X71.438Y-133.35
X72.545Y-60.84
X73.193Y-137.415
X73.201Y-141.925
X73.819Y-152.4
X73.819Y-159.544
X76.2Y-95.25
X78.581Y-83.344
X78.581Y-140.494
X80.725Y-50.825
X80.962Y-114.3
X83.344Y-152.4
X83.344Y-159.544
X85.725Y-76.2
X87.475Y-50.5
X88.106Y-54.769
X90.487Y-133.35
X90.487Y-140.494
X92.869Y-152.4
X92.869Y-159.544
X95.25Y-52.387
X95.25Y-95.25
X97.631Y-83.344
X100.012Y-114.3
X101.12Y-60.44
X102.394Y-140.494
X104.775Y-76.2
X107.156Y-159.544
X109.3Y-50.825
X109.537Y-133.35
X109.537Y-159.544
X111.593Y-137.415
X111.601Y-141.925
X114.3Y-95.25
X116.05Y-50.5
X116.681Y-54.769
X116.681Y-83.344
X119.062Y-114.3
X119.062Y-140.494
X120.17Y-60.04
X123.825Y-76.2
X126.206Y-152.4
X126.206Y-159.544
X128.588Y-133.35
X128.588Y-140.494
X133.35Y-52.387
X133.35Y-95.25
X135.731Y-83.344
X135.731Y-152.4
X135.731Y-159.544
X138.112Y-114.3
X138.112Y-140.494
X139.22Y-59.64
X142.875Y-76.2
X145.256Y-152.4
X145.256Y-159.544
X147.4Y-50.825
X147.637Y-133.35
X148.2Y-140.24
X149.993Y-137.415
X152.4Y-95.25
X154.125Y-50.5
X154.781Y-54.769
X154.781Y-83.344
X154.781Y-152.4
X157.162Y-114.3
X157.162Y-140.494
X157.162Y-159.544
X159.375Y-101.39
X161.925Y-76.2
X164.306Y-152.4
X164.306Y-159.544
X166.688Y-133.35
X166.688Y-140.494
X171.45Y-52.387
X171.45Y-95.25
X173.831Y-83.344
X176.213Y-114.3
X176.213Y-140.494
X178.425Y-102.015
X180.975Y-52.387
X180.975Y-76.2
X185.737Y-133.35
X185.737Y-140.494
X185.737Y-152.4
X188.343Y-137.415
X188.351Y-141.925
X190.5Y-95.25
X190.5Y-159.544
X192.881Y-83.344
X195.025Y-50.825
X195.262Y-114.3
X195.262Y-140.494
X197.475Y-102.415
X201.775Y-50.5
X202.406Y-54.769
X202.406Y-76.2
X204.787Y-133.35
X207.169Y-140.494
X209.55Y-95.25
X209.55Y-152.4
X209.55Y-159.544
X211.931Y-83.344
X211.931Y-133.35
X211.931Y-140.494
X214.312Y-114.3
X216.525Y-102.815
X219.075Y-52.387
X219.075Y-114.3
X221.456Y-76.2
X221.456Y-159.544
X224.945Y-62.09
X227.913Y-141.925
X227.918Y-137.415
X228.6Y-95.25
X228.6Y-114.3
X228.6Y-121.444
X230.981Y-140.494
X233.125Y-50.825
X233.362Y-83.344
X233.362Y-95.25
X233.362Y-152.4
X233.362Y-159.544
X235.744Y-130.969
X235.744Y-140.494
X239.875Y-50.5
X240.506Y-54.769
X242.887Y-83.344
X243.995Y-62.49
X245.269Y-159.544
X247.65Y-114.3
X247.65Y-140.494
X250.675Y-100.115
X250.731Y-81.065
X252.412Y-95.25
X252.412Y-114.3
X252.95Y-74.25
X252.975Y-71.4
X254.794Y-52.387
X254.794Y-140.494
X257.168Y-43.84
X257.175Y-133.35
X257.175Y-152.4
X257.175Y-159.544
X257.993Y-46.885
X258.0Y-47.825
X258.475Y-51.825
X258.5Y-54.0
X258.825Y-85.425
X258.975Y-72.2
X258.993Y-74.99
X259.025Y-79.075
X259.52Y-44.92
X259.6Y-42.34
X260.5Y-115.5
X261.1Y-47.825
X261.118Y-46.885
X261.175Y-68.675
X261.775Y-79.1
X261.818Y-48.775
X261.938Y-52.387
X261.938Y-140.494
X261.938Y-152.4
X261.968Y-43.84
X262.5Y-117.5
X263.22Y-107.95
X263.943Y-59.052
X263.943Y-61.328
X264.218Y-63.165
X264.443Y-136.44
X264.443Y-139.665
X264.495Y-107.925
X264.5Y-119.5
X265.1Y-142.875
X265.418Y-123.315
X265.65Y-78.325
X265.825Y-97.85
X265.843Y-68.032
X266.045Y-110.075
X266.266Y-68.741
X266.518Y-115.19
X266.65Y-100.115
X267.007Y-81.065
X267.808Y-113.941
X268.668Y-126.215
X269.832Y-117.067
X270.443Y-140.265
X270.793Y-129.34
X271.068Y-109.74
X271.462Y-47.625
X271.868Y-109.393
X272.35Y-121.62
X272.675Y-109.069
X273.043Y-130.115
X273.043Y-132.64
X273.55Y-120.42
X273.666Y-56.375
X273.725Y-113.945
X275.468Y-130.115
X275.468Y-132.64
X275.648Y-123.479
X275.651Y-124.833
X275.7Y-53.975
X275.925Y-115.6
X275.925Y-116.555
X276.468Y-140.29
X277.193Y-124.99
X278.0Y-119.025
X278.225Y-136.7
X278.25Y-53.95
X278.606Y-76.2
X278.606Y-95.25
X278.606Y-152.4
X278.606Y-159.544
X279.221Y-125.279
X279.25Y-81.065
X279.45Y-120.525
X279.75Y-136.65
X280.15Y-135.225
X280.264Y-124.236
X280.475Y-121.675
X280.775Y-100.915
X281.575Y-100.915
X281.589Y-56.936
X281.793Y-137.34
X281.793Y-157.265
X282.725Y-50.5
X283.369Y-76.2
X283.369Y-95.25
X283.369Y-107.156
X283.7Y-118.275
X285.75Y-65.215
X285.8Y-55.65
X285.8Y-56.605
X286.857Y-102.115
X288.79Y-65.215
X290.512Y-47.625
X290.512Y-107.156
X290.512Y-123.825
X290.512Y-140.494
X292.894Y-159.544
X293.062Y-58.137
X297.3Y-53.975
X297.656Y-95.25
X298.273Y-53.965
X300.037Y-76.2
X300.037Y-107.156
X300.037Y-123.825
X300.037Y-133.35
X300.037Y-152.4
X301.618Y-69.69
X301.618Y-84.69
X301.618Y-102.915
X301.775Y-50.5
X303.725Y-70.725
X303.9Y-82.3
X303.9Y-85.875
X303.9Y-89.35
X305.907Y-101.49
X307.1Y-82.3
X308.043Y-120.25
X308.043Y-128.415
X309.562Y-47.625
X309.562Y-114.3
X309.6Y-82.275
X309.875Y-67.825
X310.55Y-142.1
X311.944Y-114.3
X311.944Y-133.35
X311.944Y-159.544
X312.15Y-82.3
X312.175Y-63.35
X312.175Y-120.525
X315.675Y-67.875
X315.675Y-86.925
X315.675Y-110.0
X315.7Y-105.975
X315.7Y-115.95
X315.75Y-125.025
X316.175Y-88.85
T2
X268.792Y-119.84
X269.693Y-118.938
X269.693Y-120.742
X270.595Y-118.037
X270.595Y-119.84
X270.595Y-121.643
X271.496Y-118.938
X271.496Y-120.742
X272.398Y-119.84
T4
X-22.86Y-49.847
X-22.86Y-73.66
X-20.479Y-111.76
X-20.479Y-149.86
X-18.098Y-92.71
X-18.098Y-149.86
X-16.51Y-47.307
X-16.51Y-71.12
X-15.716Y-111.76
X-14.129Y-109.22
X-14.129Y-147.32
X-11.747Y-90.17
X-11.747Y-147.32
X-10.954Y-130.81
X-9.366Y-109.22
X-4.604Y-128.27
X-3.81Y-73.66
X2.54Y-71.12
X3.334Y-149.86
X5.715Y-92.71
X5.715Y-149.86
X9.684Y-147.32
X10.477Y-111.76
X12.065Y-90.17
X12.065Y-147.32
X15.24Y-49.847
X15.24Y-73.66
X16.828Y-109.22
X20.002Y-130.81
X21.59Y-47.307
X21.59Y-71.12
X24.765Y-92.71
X26.352Y-128.27
X27.146Y-149.86
X29.527Y-111.76
X29.527Y-149.86
X31.115Y-90.17
X33.496Y-147.32
X34.29Y-49.847
X34.29Y-73.66
X35.877Y-109.22
X35.877Y-147.32
X39.052Y-130.81
X40.64Y-47.307
X40.64Y-71.12
X43.815Y-92.71
X45.402Y-128.27
X48.578Y-111.76
X50.165Y-90.17
X53.34Y-49.847
X53.34Y-73.66
X54.927Y-109.22
X58.102Y-130.81
X59.69Y-47.307
X59.69Y-71.12
X62.865Y-92.71
X64.453Y-128.27
X67.627Y-111.76
X69.215Y-90.17
X72.39Y-49.847
X72.39Y-73.66
X73.977Y-109.22
X77.153Y-130.81
X78.74Y-47.307
X78.74Y-71.12
X81.915Y-92.71
X83.502Y-128.27
X86.677Y-111.76
X88.265Y-90.17
X91.44Y-73.66
X93.027Y-109.22
X96.203Y-130.81
X97.79Y-71.12
X98.584Y-149.86
X100.965Y-49.847
X100.965Y-92.71
X102.552Y-128.27
X104.934Y-147.32
X105.727Y-111.76
X107.315Y-47.307
X107.315Y-90.17
X110.49Y-73.66
X110.49Y-149.86
X112.078Y-109.22
X115.252Y-130.81
X116.84Y-71.12
X116.84Y-147.32
X120.015Y-49.847
X120.015Y-92.71
X121.602Y-128.27
X124.777Y-111.76
X126.365Y-47.307
X126.365Y-90.17
X129.54Y-73.66
X131.127Y-109.22
X134.302Y-130.81
X135.89Y-71.12
X139.065Y-49.847
X139.065Y-92.71
X140.653Y-128.27
X143.827Y-111.76
X145.415Y-47.307
X145.415Y-90.17
X148.59Y-73.66
X150.177Y-109.22
X153.352Y-130.81
X154.94Y-71.12
X158.115Y-49.847
X158.115Y-92.71
X159.702Y-128.27
X162.877Y-111.76
X164.465Y-47.307
X164.465Y-90.17
X167.64Y-73.66
X169.227Y-109.22
X170.021Y-149.86
X172.403Y-130.81
X173.99Y-71.12
X176.371Y-147.32
X177.165Y-92.71
X178.752Y-128.27
X181.927Y-111.76
X183.515Y-90.17
X186.69Y-49.847
X186.69Y-73.66
X188.278Y-109.22
X191.452Y-130.81
X191.452Y-149.86
X193.04Y-47.307
X193.04Y-71.12
X193.834Y-149.86
X196.215Y-92.71
X197.802Y-128.27
X197.802Y-147.32
X200.184Y-147.32
X200.977Y-111.76
X202.565Y-90.17
X205.74Y-49.847
X205.74Y-73.66
X207.327Y-109.22
X212.09Y-47.307
X212.09Y-71.12
X215.265Y-92.71
X215.265Y-149.86
X217.646Y-130.81
X217.646Y-149.86
X221.615Y-90.17
X221.615Y-147.32
X223.996Y-128.27
X223.996Y-147.32
X224.79Y-49.847
X224.79Y-73.66
X227.171Y-130.81
X231.14Y-47.307
X231.14Y-71.12
X231.934Y-111.76
X233.521Y-128.27
X234.315Y-73.66
X238.284Y-109.22
X239.077Y-92.71
X239.077Y-149.86
X240.665Y-71.12
X241.459Y-149.86
X243.84Y-49.847
X243.84Y-73.66
X243.84Y-130.81
X245.427Y-90.17
X245.427Y-147.32
X247.809Y-147.32
X250.19Y-47.307
X250.19Y-71.12
X250.19Y-128.27
X267.652Y-49.847
X267.652Y-73.66
X267.652Y-92.71
X267.652Y-149.86
X274.002Y-47.307
X274.002Y-71.12
X274.002Y-90.17
X274.002Y-147.32
X286.702Y-49.847
X286.702Y-73.66
X286.702Y-92.71
X286.702Y-130.81
X286.702Y-149.86
X293.053Y-47.307
X293.053Y-71.12
X293.053Y-90.17
X293.053Y-128.27
X293.053Y-147.32
X305.752Y-49.847
X305.752Y-73.66
X305.752Y-92.71
X305.752Y-149.86
X312.102Y-47.307
X312.102Y-71.12
X312.102Y-90.17
X312.102Y-147.32
T3
X255.248Y-38.675G85X255.248Y-39.475
G05
X255.248Y-39.475G85X255.248Y-38.675
G05
X255.248Y-42.705G85X255.248Y-43.805
G05
X255.248Y-43.805G85X255.248Y-42.705
G05
X263.888Y-39.475G85X263.888Y-38.675
G05
X263.888Y-38.675G85X263.888Y-39.475
G05
X263.888Y-42.705G85X263.888Y-43.805
G05
X263.888Y-43.805G85X263.888Y-42.705
G05
M30
