%TF.GenerationSoftware,KiCad,Pcbnew,8.0.1*%
%TF.CreationDate,2025-07-10T21:51:53+09:00*%
%TF.ProjectId,OrionV2V3_rp2040,4f72696f-6e56-4325-9633-5f7270323034,rev?*%
%TF.SameCoordinates,Original*%
%TF.FileFunction,Paste,Bot*%
%TF.FilePolarity,Positive*%
%FSLAX46Y46*%
G04 Gerber Fmt 4.6, Leading zero omitted, Abs format (unit mm)*
G04 Created by KiCad (PCBNEW 8.0.1) date 2025-07-10 21:51:53*
%MOMM*%
%LPD*%
G01*
G04 APERTURE LIST*
G04 Aperture macros list*
%AMRoundRect*
0 Rectangle with rounded corners*
0 $1 Rounding radius*
0 $2 $3 $4 $5 $6 $7 $8 $9 X,Y pos of 4 corners*
0 Add a 4 corners polygon primitive as box body*
4,1,4,$2,$3,$4,$5,$6,$7,$8,$9,$2,$3,0*
0 Add four circle primitives for the rounded corners*
1,1,$1+$1,$2,$3*
1,1,$1+$1,$4,$5*
1,1,$1+$1,$6,$7*
1,1,$1+$1,$8,$9*
0 Add four rect primitives between the rounded corners*
20,1,$1+$1,$2,$3,$4,$5,0*
20,1,$1+$1,$4,$5,$6,$7,0*
20,1,$1+$1,$6,$7,$8,$9,0*
20,1,$1+$1,$8,$9,$2,$3,0*%
%AMOutline5P*
0 Free polygon, 5 corners , with rotation*
0 The origin of the aperture is its center*
0 number of corners: always 5*
0 $1 to $10 corner X, Y*
0 $11 Rotation angle, in degrees counterclockwise*
0 create outline with 5 corners*
4,1,5,$1,$2,$3,$4,$5,$6,$7,$8,$9,$10,$1,$2,$11*%
%AMOutline6P*
0 Free polygon, 6 corners , with rotation*
0 The origin of the aperture is its center*
0 number of corners: always 6*
0 $1 to $12 corner X, Y*
0 $13 Rotation angle, in degrees counterclockwise*
0 create outline with 6 corners*
4,1,6,$1,$2,$3,$4,$5,$6,$7,$8,$9,$10,$11,$12,$1,$2,$13*%
%AMOutline7P*
0 Free polygon, 7 corners , with rotation*
0 The origin of the aperture is its center*
0 number of corners: always 7*
0 $1 to $14 corner X, Y*
0 $15 Rotation angle, in degrees counterclockwise*
0 create outline with 7 corners*
4,1,7,$1,$2,$3,$4,$5,$6,$7,$8,$9,$10,$11,$12,$13,$14,$1,$2,$15*%
%AMOutline8P*
0 Free polygon, 8 corners , with rotation*
0 The origin of the aperture is its center*
0 number of corners: always 8*
0 $1 to $16 corner X, Y*
0 $17 Rotation angle, in degrees counterclockwise*
0 create outline with 8 corners*
4,1,8,$1,$2,$3,$4,$5,$6,$7,$8,$9,$10,$11,$12,$13,$14,$15,$16,$1,$2,$17*%
G04 Aperture macros list end*
%ADD10R,1.700000X0.820000*%
%ADD11RoundRect,0.205000X0.645000X0.205000X-0.645000X0.205000X-0.645000X-0.205000X0.645000X-0.205000X0*%
%ADD12R,0.820000X1.700000*%
%ADD13RoundRect,0.205000X0.205000X-0.645000X0.205000X0.645000X-0.205000X0.645000X-0.205000X-0.645000X0*%
%ADD14RoundRect,0.205000X-0.645000X-0.205000X0.645000X-0.205000X0.645000X0.205000X-0.645000X0.205000X0*%
%ADD15RoundRect,0.250000X-0.450000X0.325000X-0.450000X-0.325000X0.450000X-0.325000X0.450000X0.325000X0*%
%ADD16RoundRect,0.225000X0.375000X-0.225000X0.375000X0.225000X-0.375000X0.225000X-0.375000X-0.225000X0*%
%ADD17RoundRect,0.140000X-0.140000X-0.170000X0.140000X-0.170000X0.140000X0.170000X-0.140000X0.170000X0*%
%ADD18R,1.600000X0.850000*%
%ADD19Outline6P,-0.800000X0.425000X0.460000X0.425000X0.800000X0.085000X0.800000X-0.425000X-0.460000X-0.425000X-0.800000X-0.085000X0.000000*%
%ADD20RoundRect,0.140000X-0.170000X0.140000X-0.170000X-0.140000X0.170000X-0.140000X0.170000X0.140000X0*%
%ADD21RoundRect,0.140000X0.170000X-0.140000X0.170000X0.140000X-0.170000X0.140000X-0.170000X-0.140000X0*%
%ADD22RoundRect,0.140000X0.140000X0.170000X-0.140000X0.170000X-0.140000X-0.170000X0.140000X-0.170000X0*%
%ADD23Outline6P,-0.800000X0.425000X0.460000X0.425000X0.800000X0.085000X0.800000X-0.425000X-0.460000X-0.425000X-0.800000X-0.085000X180.000000*%
%ADD24R,0.850000X1.600000*%
%ADD25Outline6P,-0.800000X0.425000X0.460000X0.425000X0.800000X0.085000X0.800000X-0.425000X-0.460000X-0.425000X-0.800000X-0.085000X270.000000*%
%ADD26Outline6P,-0.800000X0.425000X0.460000X0.425000X0.800000X0.085000X0.800000X-0.425000X-0.460000X-0.425000X-0.800000X-0.085000X90.000000*%
%ADD27RoundRect,0.150000X-0.150000X-0.425000X0.150000X-0.425000X0.150000X0.425000X-0.150000X0.425000X0*%
%ADD28RoundRect,0.075000X-0.075000X-0.500000X0.075000X-0.500000X0.075000X0.500000X-0.075000X0.500000X0*%
%ADD29O,1.000000X1.800000*%
%ADD30O,1.000000X2.100000*%
%ADD31RoundRect,0.150000X-0.150000X0.512500X-0.150000X-0.512500X0.150000X-0.512500X0.150000X0.512500X0*%
%ADD32RoundRect,0.140000X-0.219203X-0.021213X-0.021213X-0.219203X0.219203X0.021213X0.021213X0.219203X0*%
%ADD33RoundRect,0.140000X0.219203X0.021213X0.021213X0.219203X-0.219203X-0.021213X-0.021213X-0.219203X0*%
%ADD34RoundRect,0.225000X-0.225000X-0.250000X0.225000X-0.250000X0.225000X0.250000X-0.225000X0.250000X0*%
%ADD35RoundRect,0.150000X-0.650000X-0.150000X0.650000X-0.150000X0.650000X0.150000X-0.650000X0.150000X0*%
%ADD36R,1.000000X0.750000*%
%ADD37RoundRect,0.140000X0.021213X-0.219203X0.219203X-0.021213X-0.021213X0.219203X-0.219203X0.021213X0*%
%ADD38R,0.900000X1.000000*%
%ADD39RoundRect,0.250000X0.000000X-0.413257X0.413257X0.000000X0.000000X0.413257X-0.413257X0.000000X0*%
%ADD40RoundRect,0.050000X-0.238649X-0.309359X0.309359X0.238649X0.238649X0.309359X-0.309359X-0.238649X0*%
%ADD41RoundRect,0.050000X0.238649X-0.309359X0.309359X-0.238649X-0.238649X0.309359X-0.309359X0.238649X0*%
%ADD42RoundRect,0.225000X0.335876X0.017678X0.017678X0.335876X-0.335876X-0.017678X-0.017678X-0.335876X0*%
%ADD43RoundRect,0.225000X-0.335876X-0.017678X-0.017678X-0.335876X0.335876X0.017678X0.017678X0.335876X0*%
G04 APERTURE END LIST*
D10*
%TO.C,ULED27*%
X-16837500Y-118550000D03*
X-16837500Y-120050000D03*
D11*
X-11737500Y-120050000D03*
D10*
X-11737500Y-118550000D03*
%TD*%
D12*
%TO.C,ULED3*%
X291262500Y-111750000D03*
X289762500Y-111750000D03*
D13*
X289762500Y-116850000D03*
D12*
X291262500Y-116850000D03*
%TD*%
D10*
%TO.C,ULED22*%
X2550000Y-58897500D03*
X2550000Y-57397500D03*
D14*
X-2550000Y-57397500D03*
D10*
X-2550000Y-58897500D03*
%TD*%
D12*
%TO.C,ULED2*%
X285212500Y-111755000D03*
X283712500Y-111755000D03*
D13*
X283712500Y-116855000D03*
D12*
X285212500Y-116855000D03*
%TD*%
%TO.C,ULED5*%
X303362500Y-111750000D03*
X301862500Y-111750000D03*
D13*
X301862500Y-116850000D03*
D12*
X303362500Y-116850000D03*
%TD*%
%TO.C,ULED1*%
X279162500Y-111750000D03*
X277662500Y-111750000D03*
D13*
X277662500Y-116850000D03*
D12*
X279162500Y-116850000D03*
%TD*%
%TO.C,ULED4*%
X297312501Y-111750000D03*
X295812501Y-111750000D03*
D13*
X295812501Y-116850000D03*
D12*
X297312501Y-116850000D03*
%TD*%
D10*
%TO.C,ULED20*%
X2550000Y-47377500D03*
X2550000Y-45877500D03*
D14*
X-2550000Y-45877500D03*
D10*
X-2550000Y-47377500D03*
%TD*%
%TO.C,ULED21*%
X2550000Y-53137500D03*
X2550000Y-51637500D03*
D14*
X-2550000Y-51637500D03*
D10*
X-2550000Y-53137500D03*
%TD*%
%TO.C,ULED11*%
X293062500Y-58137500D03*
X293062500Y-56637500D03*
D14*
X287962500Y-56637500D03*
D10*
X287962500Y-58137500D03*
%TD*%
D15*
%TO.C,F1*%
X264218250Y-63165001D03*
X264218250Y-65214999D03*
%TD*%
D16*
%TO.C,D74*%
X184000000Y-138215000D03*
X184000000Y-134915000D03*
%TD*%
D17*
%TO.C,LC22*%
X-5255000Y-51650000D03*
X-4295000Y-51650000D03*
%TD*%
D16*
%TO.C,D31*%
X250730750Y-81065000D03*
X250730750Y-77765000D03*
%TD*%
D18*
%TO.C,ULED36*%
X222668250Y-143750000D03*
X222668250Y-142000000D03*
D19*
X226168250Y-142000000D03*
D18*
X226168250Y-143750000D03*
%TD*%
D20*
%TO.C,LC6*%
X312168250Y-120535000D03*
X312168250Y-121495000D03*
%TD*%
%TO.C,LC39*%
X312168250Y-139585000D03*
X312168250Y-140545000D03*
%TD*%
%TO.C,LC11*%
X285800000Y-55645000D03*
X285800000Y-56605000D03*
%TD*%
D16*
%TO.C,D68*%
X69700000Y-138215000D03*
X69700000Y-134915000D03*
%TD*%
D17*
%TO.C,LC10*%
X297313250Y-53965000D03*
X298273250Y-53965000D03*
%TD*%
D21*
%TO.C,LC26*%
X-23331751Y-108744999D03*
X-23331751Y-107784999D03*
%TD*%
D22*
%TO.C,LC33*%
X112561249Y-141925000D03*
X111601249Y-141925000D03*
%TD*%
D18*
%TO.C,ULED38*%
X298287500Y-143750000D03*
X298287500Y-142000000D03*
D19*
X301787500Y-142000000D03*
D18*
X301787500Y-143750000D03*
%TD*%
%TO.C,ULED37*%
X259906250Y-143750000D03*
X259906250Y-142000000D03*
D19*
X263406250Y-142000000D03*
D18*
X263406250Y-143750000D03*
%TD*%
D16*
%TO.C,D69*%
X88750000Y-138215000D03*
X88750000Y-134915000D03*
%TD*%
D18*
%TO.C,ULED19*%
X11275000Y-50512500D03*
X11275000Y-52262500D03*
D23*
X7775000Y-52262500D03*
D18*
X7775000Y-50512500D03*
%TD*%
D16*
%TO.C,D15*%
X299025000Y-59525000D03*
X299025000Y-56225000D03*
%TD*%
D18*
%TO.C,ULED33*%
X106306250Y-143750000D03*
X106306250Y-142000000D03*
D19*
X109806250Y-142000000D03*
D18*
X109806250Y-143750000D03*
%TD*%
D16*
%TO.C,D37*%
X36362500Y-100115000D03*
X36362500Y-96815000D03*
%TD*%
%TO.C,D66*%
X31600000Y-138215000D03*
X31600000Y-134915000D03*
%TD*%
%TO.C,D75*%
X203050000Y-138215000D03*
X203050000Y-134915000D03*
%TD*%
%TO.C,D20*%
X45887500Y-81065000D03*
X45887500Y-77765000D03*
%TD*%
%TO.C,D88*%
X298300000Y-157265000D03*
X298300000Y-153965000D03*
%TD*%
%TO.C,D84*%
X205980750Y-157265000D03*
X205980750Y-153965000D03*
%TD*%
D21*
%TO.C,C14*%
X258975000Y-73155000D03*
X258975000Y-72195000D03*
%TD*%
D16*
%TO.C,D36*%
X17312500Y-100115000D03*
X17312500Y-96815000D03*
%TD*%
D17*
%TO.C,LC34*%
X147240000Y-140240000D03*
X148200000Y-140240000D03*
%TD*%
D16*
%TO.C,D34*%
X300650000Y-81065000D03*
X300650000Y-77765000D03*
%TD*%
%TO.C,D52*%
X-4118750Y-119165000D03*
X-4118750Y-115865000D03*
%TD*%
D24*
%TO.C,ULED29*%
X-25156751Y-140589999D03*
X-23406751Y-140589999D03*
D25*
X-23406751Y-144089999D03*
D24*
X-25156751Y-144089999D03*
%TD*%
%TO.C,ULED6*%
X315668250Y-125015000D03*
X313918250Y-125015000D03*
D26*
X313918250Y-121515000D03*
D24*
X315668250Y-121515000D03*
%TD*%
D27*
%TO.C,J1*%
X256368250Y-43830000D03*
X257168250Y-43830000D03*
D28*
X258318250Y-43829999D03*
X259318250Y-43830000D03*
X259818250Y-43830000D03*
X260818250Y-43829999D03*
D27*
X261968250Y-43830000D03*
X262768250Y-43830000D03*
X262768250Y-43830000D03*
X261968250Y-43830000D03*
D28*
X261318250Y-43830000D03*
X260318250Y-43830000D03*
X258818250Y-43830000D03*
X257818250Y-43830000D03*
D27*
X257168250Y-43830000D03*
X256368250Y-43830000D03*
D29*
X255248250Y-39075000D03*
D30*
X255248250Y-43255000D03*
D29*
X263888250Y-39075000D03*
D30*
X263888250Y-43255000D03*
%TD*%
D16*
%TO.C,D38*%
X55412500Y-100115000D03*
X55412500Y-96815000D03*
%TD*%
D17*
%TO.C,LC19*%
X7308250Y-54040000D03*
X8268250Y-54040000D03*
%TD*%
D31*
%TO.C,U1*%
X258062501Y-75012500D03*
X259012500Y-75012500D03*
X259962499Y-75012500D03*
X259962499Y-77287500D03*
X258062501Y-77287500D03*
%TD*%
D16*
%TO.C,D58*%
X117325000Y-119165000D03*
X117325000Y-115865000D03*
%TD*%
D18*
%TO.C,ULED35*%
X183106250Y-143750000D03*
X183106250Y-142000000D03*
D19*
X186606250Y-142000000D03*
D18*
X186606250Y-143750000D03*
%TD*%
D17*
%TO.C,LC18*%
X42630000Y-50820000D03*
X43590000Y-50820000D03*
%TD*%
D21*
%TO.C,R3*%
X269186924Y-135323472D03*
X269186924Y-134363472D03*
%TD*%
D22*
%TO.C,LC31*%
X35761250Y-141925000D03*
X34801250Y-141925000D03*
%TD*%
D18*
%TO.C,ULED18*%
X49375000Y-50512500D03*
X49375000Y-52262500D03*
D23*
X45875000Y-52262500D03*
D18*
X45875000Y-50512500D03*
%TD*%
D16*
%TO.C,D11*%
X217337500Y-57252500D03*
X217337500Y-53952500D03*
%TD*%
D20*
%TO.C,LC1*%
X275925000Y-115595000D03*
X275925000Y-116555000D03*
%TD*%
D16*
%TO.C,D83*%
X181618750Y-157265000D03*
X181618750Y-153965000D03*
%TD*%
%TO.C,D2*%
X26837500Y-57252500D03*
X26837500Y-53952500D03*
%TD*%
D32*
%TO.C,C5*%
X266522513Y-115179061D03*
X267201335Y-115857883D03*
%TD*%
D33*
%TO.C,C11*%
X267876335Y-115182883D03*
X267197513Y-114504061D03*
%TD*%
D16*
%TO.C,D46*%
X207812500Y-100115000D03*
X207812500Y-96815000D03*
%TD*%
D34*
%TO.C,C18*%
X260225000Y-79100000D03*
X261775000Y-79100000D03*
%TD*%
D17*
%TO.C,LC23*%
X-14505000Y-50425000D03*
X-13545000Y-50425000D03*
%TD*%
D16*
%TO.C,D9*%
X169712500Y-57252500D03*
X169712500Y-53952500D03*
%TD*%
D21*
%TO.C,LC37*%
X265100000Y-142880000D03*
X265100000Y-141920000D03*
%TD*%
D18*
%TO.C,ULED16*%
X116050000Y-50512500D03*
X116050000Y-52262500D03*
D23*
X112550000Y-52262500D03*
D18*
X112550000Y-50512500D03*
%TD*%
D16*
%TO.C,D63*%
X212575000Y-119165000D03*
X212575000Y-115865000D03*
%TD*%
D21*
%TO.C,LC25*%
X-23331751Y-89694999D03*
X-23331751Y-88734999D03*
%TD*%
D17*
%TO.C,LC12*%
X278263250Y-53965000D03*
X279223250Y-53965000D03*
%TD*%
D16*
%TO.C,D4*%
X64937500Y-57252500D03*
X64937500Y-53952500D03*
%TD*%
%TO.C,D43*%
X150662500Y-100115000D03*
X150662500Y-96815000D03*
%TD*%
D32*
%TO.C,C9*%
X278265589Y-121075589D03*
X278944411Y-121754411D03*
%TD*%
D18*
%TO.C,ULED13*%
X239875000Y-50512500D03*
X239875000Y-52262500D03*
D23*
X236375000Y-52262500D03*
D18*
X236375000Y-50512500D03*
%TD*%
D24*
%TO.C,ULED25*%
X-25156751Y-83439999D03*
X-23406751Y-83439999D03*
D25*
X-23406751Y-86939999D03*
D24*
X-25156751Y-86939999D03*
%TD*%
D16*
%TO.C,D85*%
X229793250Y-157265000D03*
X229793250Y-153965000D03*
%TD*%
%TO.C,D89*%
X300625000Y-157265000D03*
X300625000Y-153965000D03*
%TD*%
%TO.C,D3*%
X45710000Y-57500000D03*
X45710000Y-54200000D03*
%TD*%
D21*
%TO.C,LC5*%
X301850000Y-119230000D03*
X301850000Y-118270000D03*
%TD*%
D16*
%TO.C,D6*%
X112080000Y-57550000D03*
X112080000Y-54250000D03*
%TD*%
D22*
%TO.C,C3*%
X277980000Y-119025000D03*
X277020000Y-119025000D03*
%TD*%
D16*
%TO.C,D18*%
X7787500Y-81065000D03*
X7787500Y-77765000D03*
%TD*%
%TO.C,D47*%
X226862500Y-100115000D03*
X226862500Y-96815000D03*
%TD*%
D20*
%TO.C,R9*%
X257993250Y-46885000D03*
X257993250Y-47845000D03*
%TD*%
D16*
%TO.C,D82*%
X122087500Y-157265000D03*
X122087500Y-153965000D03*
%TD*%
%TO.C,D27*%
X179237500Y-81065000D03*
X179237500Y-77765000D03*
%TD*%
%TO.C,D19*%
X26837500Y-81065000D03*
X26837500Y-77765000D03*
%TD*%
D22*
%TO.C,C7*%
X277980000Y-119975000D03*
X277020000Y-119975000D03*
%TD*%
D35*
%TO.C,U2*%
X270786924Y-133148472D03*
X270786924Y-131878472D03*
X270786924Y-130608472D03*
X270786924Y-129338472D03*
X277986924Y-129338472D03*
X277986924Y-130608472D03*
X277986924Y-131878472D03*
X277986924Y-133148472D03*
%TD*%
D21*
%TO.C,LC29*%
X-23331751Y-146844999D03*
X-23331751Y-145884999D03*
%TD*%
%TO.C,LC2*%
X283700000Y-119235000D03*
X283700000Y-118275000D03*
%TD*%
D22*
%TO.C,LC35*%
X189311250Y-141925000D03*
X188351250Y-141925000D03*
%TD*%
D31*
%TO.C,U4*%
X263943251Y-59052500D03*
X264893250Y-59052500D03*
X265843249Y-59052500D03*
X265843249Y-61327500D03*
X264893250Y-61327500D03*
X263943251Y-61327500D03*
%TD*%
D17*
%TO.C,LC21*%
X-5255000Y-57400000D03*
X-4295000Y-57400000D03*
%TD*%
D16*
%TO.C,D42*%
X131612500Y-100115000D03*
X131612500Y-96815000D03*
%TD*%
%TO.C,D25*%
X141137500Y-81065000D03*
X141137500Y-77765000D03*
%TD*%
%TO.C,D56*%
X79225000Y-119165000D03*
X79225000Y-115865000D03*
%TD*%
%TO.C,D59*%
X136375000Y-119165000D03*
X136375000Y-115865000D03*
%TD*%
%TO.C,D50*%
X298300000Y-100115000D03*
X298300000Y-96815000D03*
%TD*%
D36*
%TO.C,BOOTSEL1*%
X270461924Y-140293472D03*
X276461924Y-140293472D03*
X270461924Y-136543472D03*
X276461924Y-136543472D03*
%TD*%
D16*
%TO.C,D53*%
X22075000Y-119165000D03*
X22075000Y-115865000D03*
%TD*%
%TO.C,D10*%
X198270000Y-57530000D03*
X198270000Y-54230000D03*
%TD*%
D21*
%TO.C,LC3*%
X289750000Y-119230000D03*
X289750000Y-118270000D03*
%TD*%
D32*
%TO.C,C12*%
X277590589Y-121750589D03*
X278269411Y-122429411D03*
%TD*%
D20*
%TO.C,LC8*%
X312168250Y-82435000D03*
X312168250Y-83395000D03*
%TD*%
D17*
%TO.C,LC13*%
X233130000Y-50820000D03*
X234090000Y-50820000D03*
%TD*%
D16*
%TO.C,D29*%
X217337500Y-81065000D03*
X217337500Y-77765000D03*
%TD*%
%TO.C,D78*%
X297500000Y-138215000D03*
X297500000Y-134915000D03*
%TD*%
D37*
%TO.C,C17*%
X268672513Y-126207883D03*
X269351335Y-125529061D03*
%TD*%
D16*
%TO.C,D45*%
X188762500Y-100115000D03*
X188762500Y-96815000D03*
%TD*%
%TO.C,D26*%
X160187500Y-81065000D03*
X160187500Y-77765000D03*
%TD*%
D17*
%TO.C,LC20*%
X-5380000Y-45875000D03*
X-4420000Y-45875000D03*
%TD*%
D18*
%TO.C,ULED34*%
X144706250Y-143750000D03*
X144706250Y-142000000D03*
D19*
X148206250Y-142000000D03*
D18*
X148206250Y-143750000D03*
%TD*%
D21*
%TO.C,LC28*%
X-23331751Y-127794999D03*
X-23331751Y-126834999D03*
%TD*%
D24*
%TO.C,ULED7*%
X315668250Y-105965000D03*
X313918250Y-105965000D03*
D26*
X313918250Y-102465000D03*
D24*
X315668250Y-102465000D03*
%TD*%
D16*
%TO.C,D86*%
X253605750Y-157265000D03*
X253605750Y-153965000D03*
%TD*%
%TO.C,D65*%
X775000Y-138252500D03*
X775000Y-134952500D03*
%TD*%
%TO.C,D40*%
X93512500Y-100115000D03*
X93512500Y-96815000D03*
%TD*%
%TO.C,D73*%
X164950000Y-138215000D03*
X164950000Y-134915000D03*
%TD*%
D18*
%TO.C,ULED32*%
X67906250Y-143750000D03*
X67906250Y-142000000D03*
D19*
X71406250Y-142000000D03*
D18*
X71406250Y-143750000D03*
%TD*%
D22*
%TO.C,C16*%
X265730000Y-111475001D03*
X264770000Y-111475001D03*
%TD*%
D16*
%TO.C,D51*%
X300625000Y-100125000D03*
X300625000Y-96825000D03*
%TD*%
D18*
%TO.C,ULED30*%
X-8893750Y-143750000D03*
X-8893750Y-142000000D03*
D19*
X-5393750Y-142000000D03*
D18*
X-5393750Y-143750000D03*
%TD*%
D21*
%TO.C,LC4*%
X295800001Y-119230000D03*
X295800001Y-118270000D03*
%TD*%
D16*
%TO.C,D64*%
X243531250Y-119165000D03*
X243531250Y-115865000D03*
%TD*%
D38*
%TO.C,Y1*%
X266025000Y-107925000D03*
X266025000Y-110075000D03*
X264475000Y-110075000D03*
X264475000Y-107925000D03*
%TD*%
D16*
%TO.C,D23*%
X103037500Y-81065000D03*
X103037500Y-77765000D03*
%TD*%
%TO.C,D87*%
X279250000Y-157265000D03*
X279250000Y-153965000D03*
%TD*%
%TO.C,D12*%
X236320000Y-57550000D03*
X236320000Y-54250000D03*
%TD*%
D17*
%TO.C,R6*%
X264770000Y-112425000D03*
X265730000Y-112425000D03*
%TD*%
D24*
%TO.C,ULED24*%
X-25156750Y-64389999D03*
X-23406750Y-64389999D03*
D25*
X-23406750Y-67889999D03*
D24*
X-25156750Y-67889999D03*
%TD*%
D16*
%TO.C,D44*%
X169712500Y-100115000D03*
X169712500Y-96815000D03*
%TD*%
%TO.C,D57*%
X98275000Y-119165000D03*
X98275000Y-115865000D03*
%TD*%
%TO.C,D76*%
X234118250Y-138215000D03*
X234118250Y-134915000D03*
%TD*%
%TO.C,D80*%
X17862000Y-157265000D03*
X17862000Y-153965000D03*
%TD*%
D17*
%TO.C,C13*%
X258070000Y-79100000D03*
X259030000Y-79100000D03*
%TD*%
D24*
%TO.C,ULED26*%
X-25156751Y-102489999D03*
X-23406751Y-102489999D03*
D25*
X-23406751Y-105989999D03*
D24*
X-25156751Y-105989999D03*
%TD*%
D18*
%TO.C,ULED14*%
X201775000Y-50512500D03*
X201775000Y-52262500D03*
D23*
X198275000Y-52262500D03*
D18*
X198275000Y-50512500D03*
%TD*%
D16*
%TO.C,D32*%
X279250000Y-81065000D03*
X279250000Y-77765000D03*
%TD*%
D18*
%TO.C,ULED15*%
X154150000Y-50512500D03*
X154150000Y-52262500D03*
D23*
X150650000Y-52262500D03*
D18*
X150650000Y-50512500D03*
%TD*%
%TO.C,ULED23*%
X-7775000Y-50512500D03*
X-7775000Y-52262500D03*
D23*
X-11275000Y-52262500D03*
D18*
X-11275000Y-50512500D03*
%TD*%
D37*
%TO.C,C6*%
X265408102Y-123307883D03*
X266086924Y-122629061D03*
%TD*%
D18*
%TO.C,ULED10*%
X301787500Y-50512500D03*
X301787500Y-52262500D03*
D23*
X298287500Y-52262500D03*
D18*
X298287500Y-50512500D03*
%TD*%
D32*
%TO.C,C10*%
X274972513Y-124154061D03*
X275651335Y-124832883D03*
%TD*%
D18*
%TO.C,ULED31*%
X29506250Y-143750000D03*
X29506250Y-142000000D03*
D19*
X33006250Y-142000000D03*
D18*
X33006250Y-143750000D03*
%TD*%
D39*
%TO.C,U3*%
X269693250Y-119840000D03*
X270594811Y-120741561D03*
X270594811Y-118938439D03*
X271496372Y-119840000D03*
D40*
X270002609Y-124109157D03*
X269719766Y-123826314D03*
X269436924Y-123543472D03*
X269154081Y-123260629D03*
X268871238Y-122977786D03*
X268588396Y-122694944D03*
X268305553Y-122412101D03*
X268022710Y-122129258D03*
X267739867Y-121846415D03*
X267457025Y-121563573D03*
X267174182Y-121280730D03*
X266891339Y-120997887D03*
X266608497Y-120715045D03*
X266325654Y-120432202D03*
D41*
X266325654Y-119247798D03*
X266608497Y-118964955D03*
X266891339Y-118682113D03*
X267174182Y-118399270D03*
X267457025Y-118116427D03*
X267739867Y-117833585D03*
X268022710Y-117550742D03*
X268305553Y-117267899D03*
X268588396Y-116985056D03*
X268871238Y-116702214D03*
X269154081Y-116419371D03*
X269436924Y-116136528D03*
X269719766Y-115853686D03*
X270002609Y-115570843D03*
D40*
X271187013Y-115570843D03*
X271469856Y-115853686D03*
X271752698Y-116136528D03*
X272035541Y-116419371D03*
X272318384Y-116702214D03*
X272601226Y-116985056D03*
X272884069Y-117267899D03*
X273166912Y-117550742D03*
X273449755Y-117833585D03*
X273732597Y-118116427D03*
X274015440Y-118399270D03*
X274298283Y-118682113D03*
X274581125Y-118964955D03*
X274863968Y-119247798D03*
D41*
X274863968Y-120432202D03*
X274581125Y-120715045D03*
X274298283Y-120997887D03*
X274015440Y-121280730D03*
X273732597Y-121563573D03*
X273449755Y-121846415D03*
X273166912Y-122129258D03*
X272884069Y-122412101D03*
X272601226Y-122694944D03*
X272318384Y-122977786D03*
X272035541Y-123260629D03*
X271752698Y-123543472D03*
X271469856Y-123826314D03*
X271187013Y-124109157D03*
%TD*%
D16*
%TO.C,D79*%
X-5950500Y-157265000D03*
X-5950500Y-153965000D03*
%TD*%
%TO.C,D60*%
X155425000Y-119165000D03*
X155425000Y-115865000D03*
%TD*%
D22*
%TO.C,LC36*%
X228873250Y-141925000D03*
X227913250Y-141925000D03*
%TD*%
D16*
%TO.C,D33*%
X298300000Y-81065000D03*
X298300000Y-77765000D03*
%TD*%
%TO.C,D24*%
X122087500Y-81065000D03*
X122087500Y-77765000D03*
%TD*%
%TO.C,D81*%
X41674500Y-157265000D03*
X41674500Y-153965000D03*
%TD*%
%TO.C,D41*%
X112562500Y-100115000D03*
X112562500Y-96815000D03*
%TD*%
D20*
%TO.C,C15*%
X263225000Y-107945003D03*
X263225000Y-108905003D03*
%TD*%
D16*
%TO.C,D5*%
X83770000Y-57490000D03*
X83770000Y-54190000D03*
%TD*%
D24*
%TO.C,ULED9*%
X315668250Y-67865000D03*
X313918250Y-67865000D03*
D26*
X313918250Y-64365000D03*
D24*
X315668250Y-64365000D03*
%TD*%
D20*
%TO.C,LC9*%
X312168250Y-63385000D03*
X312168250Y-64345000D03*
%TD*%
D24*
%TO.C,ULED28*%
X-25156751Y-121539999D03*
X-23406751Y-121539999D03*
D25*
X-23406751Y-125039999D03*
D24*
X-25156751Y-125039999D03*
%TD*%
D16*
%TO.C,D14*%
X282750000Y-58200000D03*
X282750000Y-54900000D03*
%TD*%
%TO.C,D71*%
X126850000Y-138215000D03*
X126850000Y-134915000D03*
%TD*%
%TO.C,D7*%
X131612500Y-57252500D03*
X131612500Y-53952500D03*
%TD*%
%TO.C,D70*%
X107800000Y-138215000D03*
X107800000Y-134915000D03*
%TD*%
D42*
%TO.C,R1*%
X279221283Y-125278998D03*
X278125267Y-124182982D03*
%TD*%
D22*
%TO.C,LC30*%
X-2638750Y-141925000D03*
X-3598750Y-141925000D03*
%TD*%
D18*
%TO.C,ULED12*%
X282737500Y-50512500D03*
X282737500Y-52262500D03*
D23*
X279237500Y-52262500D03*
D18*
X279237500Y-50512500D03*
%TD*%
D20*
%TO.C,R11*%
X275000000Y-115595000D03*
X275000000Y-116555000D03*
%TD*%
D16*
%TO.C,D28*%
X198287500Y-81065000D03*
X198287500Y-77765000D03*
%TD*%
D17*
%TO.C,C8*%
X279188250Y-135215000D03*
X280148250Y-135215000D03*
%TD*%
D16*
%TO.C,D8*%
X150340000Y-57560000D03*
X150340000Y-54260000D03*
%TD*%
D17*
%TO.C,LC27*%
X-14630000Y-121900000D03*
X-13670000Y-121900000D03*
%TD*%
D16*
%TO.C,D16*%
X301350000Y-59525000D03*
X301350000Y-56225000D03*
%TD*%
%TO.C,D13*%
X255437500Y-57252500D03*
X255437500Y-53952500D03*
%TD*%
D20*
%TO.C,R10*%
X261118250Y-46885000D03*
X261118250Y-47845000D03*
%TD*%
D16*
%TO.C,D55*%
X60175000Y-119165000D03*
X60175000Y-115865000D03*
%TD*%
%TO.C,D30*%
X235350000Y-81065000D03*
X235350000Y-77765000D03*
%TD*%
D33*
%TO.C,C1*%
X276326335Y-124157883D03*
X275647513Y-123479061D03*
%TD*%
D20*
%TO.C,C4*%
X273725000Y-113945000D03*
X273725000Y-114905000D03*
%TD*%
D16*
%TO.C,D48*%
X250675000Y-100115000D03*
X250675000Y-96815000D03*
%TD*%
%TO.C,D77*%
X255437500Y-138215000D03*
X255437500Y-134915000D03*
%TD*%
%TO.C,D17*%
X-11262500Y-81065000D03*
X-11262500Y-77765000D03*
%TD*%
D17*
%TO.C,LC15*%
X147405000Y-50820000D03*
X148365000Y-50820000D03*
%TD*%
D16*
%TO.C,D49*%
X279250000Y-100115000D03*
X279250000Y-96815000D03*
%TD*%
%TO.C,D35*%
X-6500000Y-100115000D03*
X-6500000Y-96815000D03*
%TD*%
D24*
%TO.C,ULED39*%
X315668250Y-144065000D03*
X313918250Y-144065000D03*
D26*
X313918250Y-140565000D03*
D24*
X315668250Y-140565000D03*
%TD*%
D16*
%TO.C,D22*%
X83987500Y-81065000D03*
X83987500Y-77765000D03*
%TD*%
D20*
%TO.C,LC7*%
X312168250Y-101485000D03*
X312168250Y-102445000D03*
%TD*%
D16*
%TO.C,D21*%
X64937500Y-81065000D03*
X64937500Y-77765000D03*
%TD*%
D21*
%TO.C,LC24*%
X-21500000Y-68780000D03*
X-21500000Y-67820000D03*
%TD*%
D43*
%TO.C,R2*%
X279168250Y-123140000D03*
X280264266Y-124236016D03*
%TD*%
D17*
%TO.C,LC16*%
X109305000Y-50820000D03*
X110265000Y-50820000D03*
%TD*%
D24*
%TO.C,ULED8*%
X315668250Y-86915000D03*
X313918250Y-86915000D03*
D26*
X313918250Y-83415000D03*
D24*
X315668250Y-83415000D03*
%TD*%
D16*
%TO.C,D54*%
X41125000Y-119165000D03*
X41125000Y-115865000D03*
%TD*%
D21*
%TO.C,R4*%
X268236924Y-135323472D03*
X268236924Y-134363472D03*
%TD*%
D22*
%TO.C,LC38*%
X304477500Y-141890000D03*
X303517500Y-141890000D03*
%TD*%
D16*
%TO.C,D1*%
X-11450000Y-57425000D03*
X-11450000Y-54125000D03*
%TD*%
%TO.C,D61*%
X174475000Y-119165000D03*
X174475000Y-115865000D03*
%TD*%
D22*
%TO.C,LC32*%
X74161250Y-141925000D03*
X73201250Y-141925000D03*
%TD*%
D16*
%TO.C,D72*%
X145900000Y-138215000D03*
X145900000Y-134915000D03*
%TD*%
D17*
%TO.C,LC17*%
X80730000Y-50820000D03*
X81690000Y-50820000D03*
%TD*%
D33*
%TO.C,C2*%
X277001335Y-123482883D03*
X276322513Y-122804061D03*
%TD*%
D16*
%TO.C,D67*%
X50650000Y-138215000D03*
X50650000Y-134915000D03*
%TD*%
D18*
%TO.C,ULED17*%
X87475000Y-50512500D03*
X87475000Y-52262500D03*
D23*
X83975000Y-52262500D03*
D18*
X83975000Y-50512500D03*
%TD*%
D17*
%TO.C,LC14*%
X195030000Y-50820000D03*
X195990000Y-50820000D03*
%TD*%
D16*
%TO.C,D39*%
X74462500Y-100115000D03*
X74462500Y-96815000D03*
%TD*%
%TO.C,D62*%
X193525000Y-119165000D03*
X193525000Y-115865000D03*
%TD*%
M02*
