%TF.GenerationSoftware,KiCad,Pcbnew,8.0.1*%
%TF.CreationDate,2025-07-10T21:51:53+09:00*%
%TF.ProjectId,OrionV2V3_rp2040,4f72696f-6e56-4325-9633-5f7270323034,rev?*%
%TF.SameCoordinates,Original*%
%TF.FileFunction,Profile,NP*%
%FSLAX46Y46*%
G04 Gerber Fmt 4.6, Leading zero omitted, Abs format (unit mm)*
G04 Created by KiCad (PCBNEW 8.0.1) date 2025-07-10 21:51:53*
%MOMM*%
%LPD*%
G01*
G04 APERTURE LIST*
%TA.AperFunction,Profile*%
%ADD10C,0.500000*%
%TD*%
%TA.AperFunction,Profile*%
%ADD11C,0.120000*%
%TD*%
G04 APERTURE END LIST*
D10*
X-22700000Y-161249963D02*
G75*
G02*
X-26700000Y-157249950I-95J3999905D01*
G01*
X254456248Y-38437464D02*
X254456248Y-44037463D01*
X264656252Y-38437464D02*
X264656252Y-44037463D01*
X264156251Y-37937463D02*
G75*
G02*
X264656237Y-38437464I49J-499937D01*
G01*
X254456248Y-44037463D02*
X-22699850Y-44037463D01*
X317212500Y-157249964D02*
G75*
G02*
X313212500Y-161250000I-3999900J-136D01*
G01*
X-22700000Y-161249963D02*
X313212500Y-161249963D01*
X313212501Y-44037463D02*
X264656252Y-44037463D01*
X313212501Y-44037463D02*
G75*
G02*
X317212437Y-48037463I-101J-4000037D01*
G01*
X-26700000Y-48020580D02*
G75*
G02*
X-22699850Y-44037463I4000151J-17070D01*
G01*
X254456248Y-38437464D02*
G75*
G02*
X254956249Y-37937448I500052J-36D01*
G01*
X-26700000Y-48020580D02*
X-26700000Y-157249950D01*
X317212500Y-157249964D02*
X317212500Y-48037463D01*
X264156251Y-37937463D02*
X254956249Y-37937463D01*
D11*
%TO.C,ULED27*%
X-15987500Y-117800000D02*
X-15987500Y-120800000D01*
X-15987500Y-120800000D02*
X-12587500Y-120800000D01*
X-12587500Y-117800000D02*
X-15987500Y-117800000D01*
X-12587500Y-120800000D02*
X-12587500Y-117800000D01*
%TO.C,ULED3*%
X289012500Y-112600000D02*
X289012500Y-116000000D01*
X289012500Y-116000000D02*
X292012500Y-116000000D01*
X292012500Y-112600000D02*
X289012500Y-112600000D01*
X292012500Y-116000000D02*
X292012500Y-112600000D01*
%TO.C,ULED22*%
X-1700000Y-56647500D02*
X-1700000Y-59647500D01*
X-1700000Y-59647500D02*
X1700000Y-59647500D01*
X1700000Y-56647500D02*
X-1700000Y-56647500D01*
X1700000Y-59647500D02*
X1700000Y-56647500D01*
%TO.C,ULED2*%
X282962500Y-112605000D02*
X282962500Y-116005000D01*
X282962500Y-116005000D02*
X285962500Y-116005000D01*
X285962500Y-112605000D02*
X282962500Y-112605000D01*
X285962500Y-116005000D02*
X285962500Y-112605000D01*
%TO.C,ULED5*%
X301112500Y-112600000D02*
X301112500Y-116000000D01*
X301112500Y-116000000D02*
X304112500Y-116000000D01*
X304112500Y-112600000D02*
X301112500Y-112600000D01*
X304112500Y-116000000D02*
X304112500Y-112600000D01*
%TO.C,ULED1*%
X276912500Y-112600000D02*
X276912500Y-116000000D01*
X276912500Y-116000000D02*
X279912500Y-116000000D01*
X279912500Y-112600000D02*
X276912500Y-112600000D01*
X279912500Y-116000000D02*
X279912500Y-112600000D01*
%TO.C,ULED4*%
X295062501Y-112600000D02*
X295062501Y-116000000D01*
X295062501Y-116000000D02*
X298062501Y-116000000D01*
X298062501Y-112600000D02*
X295062501Y-112600000D01*
X298062501Y-116000000D02*
X298062501Y-112600000D01*
%TO.C,ULED20*%
X-1700000Y-45127500D02*
X-1700000Y-48127500D01*
X-1700000Y-48127500D02*
X1700000Y-48127500D01*
X1700000Y-45127500D02*
X-1700000Y-45127500D01*
X1700000Y-48127500D02*
X1700000Y-45127500D01*
%TO.C,ULED21*%
X-1700000Y-50887500D02*
X-1700000Y-53887500D01*
X-1700000Y-53887500D02*
X1700000Y-53887500D01*
X1700000Y-50887500D02*
X-1700000Y-50887500D01*
X1700000Y-53887500D02*
X1700000Y-50887500D01*
%TO.C,ULED11*%
X288812500Y-55887500D02*
X288812500Y-58887500D01*
X288812500Y-58887500D02*
X292212500Y-58887500D01*
X292212500Y-55887500D02*
X288812500Y-55887500D01*
X292212500Y-58887500D02*
X292212500Y-55887500D01*
%TD*%
M02*
